<?xml version="1.0" ?><svg style="enable-background:new 0 0 32 32;" version="1.1" viewBox="0 0 32 32" xml:space="preserve" xmlns="http://www.w3.org/2000/svg" xmlns:xlink="http://www.w3.org/1999/xlink"><style type="text/css">
	.st0{display:none;}
	.st1{display:inline;}
	.st2{fill:#0097E2;}
	.st3{fill:#3A3A3A;}
</style><g class="st0" id="grid"/><g id="icon"><g><g><path class="st2" d="M15,22c-0.26,0-0.51-0.1-0.71-0.29l-5-5c-0.39-0.39-0.39-1.02,0-1.41l5-5c0.39-0.39,1.02-0.39,1.41,0     s0.39,1.02,0,1.41L11.41,16l4.29,4.29c0.39,0.39,0.39,1.02,0,1.41C15.51,21.9,15.26,22,15,22z"/></g></g><g><g><path class="st2" d="M21,22c-0.26,0-0.51-0.1-0.71-0.29l-5-5c-0.39-0.39-0.39-1.02,0-1.41l5-5c0.39-0.39,1.02-0.39,1.41,0     s0.39,1.02,0,1.41L17.41,16l4.29,4.29c0.39,0.39,0.39,1.02,0,1.41C21.51,21.9,21.26,22,21,22z"/></g></g></g></svg>